<svg width="384" height="176" viewBox="0 0 384 176" fill="none" xmlns="http://www.w3.org/2000/svg">
<path d="M165.188 88C159.116 88 154.175 92.9352 154.175 99C154.175 101.024 155.82 102.667 157.846 102.667C159.873 102.667 161.517 101.024 161.517 99C161.517 96.9832 163.169 95.3332 165.188 95.3332C167.207 95.3332 168.859 96.9832 168.859 99V143C168.859 157.153 157.333 168.667 143.163 168.667H134.448C122.122 168.667 111.506 159.889 109.193 147.789L102.85 114.378C102.468 112.383 100.53 111.093 98.5621 111.459C96.5726 111.84 95.2583 113.754 95.64 115.742L101.983 149.16C104.935 164.714 118.59 176 134.441 176H143.163C161.378 176 176.2 161.194 176.2 143V99C176.2 92.9352 171.26 88 165.188 88Z" fill="url(#paint0_linear)"/>
<path d="M135.821 66C129.75 66 124.809 70.9352 124.809 77V121C124.809 123.024 126.453 124.667 128.48 124.667C130.506 124.667 132.151 123.024 132.151 121V77C132.151 74.976 133.803 73.3332 135.822 73.3332C137.841 73.3332 139.493 74.976 139.493 77V121C139.493 123.024 141.137 124.667 143.164 124.667C145.19 124.667 146.834 123.024 146.834 121V77C146.834 70.9352 141.893 66 135.821 66Z" fill="url(#paint1_linear)"/>
<path d="M121.138 73.3333C115.066 73.3333 110.125 78.2685 110.125 84.3333V121C110.125 123.024 111.77 124.667 113.796 124.667C115.823 124.667 117.467 123.024 117.467 121V84.3333C117.467 82.3093 119.119 80.6665 121.138 80.6665C123.157 80.6665 124.809 82.3093 124.809 84.3333C124.809 86.3573 126.453 88 128.479 88C130.506 88 132.15 86.3573 132.15 84.3333C132.15 78.2688 127.209 73.3333 121.138 73.3333Z" fill="url(#paint2_linear)"/>
<path d="M150.504 73.3333C144.433 73.3333 139.492 78.2685 139.492 84.3333C139.492 86.3573 141.137 88 143.163 88C145.189 88 146.834 86.3573 146.834 84.3333C146.834 82.3093 148.486 80.6665 150.505 80.6665C152.524 80.6665 154.176 82.3093 154.176 84.3333V121C154.176 123.024 155.82 124.667 157.847 124.667C159.873 124.667 161.518 123.024 161.518 121V84.3333C161.517 78.2688 156.576 73.3333 150.504 73.3333Z" fill="url(#paint3_linear)"/>
<path d="M106.454 102.667C100.383 102.667 95.4418 107.602 95.4418 113.667C95.4418 114.408 95.5151 115.119 95.6548 115.801C96 117.48 97.4168 118.419 99.0539 118.419C99.3474 118.419 99.6558 118.39 99.9569 118.331C101.946 117.92 103.195 115.654 102.783 113.667C102.783 111.65 104.435 110 106.454 110C108.473 110 110.125 111.65 110.125 113.667C110.125 115.691 111.77 117.334 113.796 117.334C115.823 117.334 117.467 115.691 117.467 113.667C117.467 107.602 112.526 102.667 106.454 102.667Z" fill="url(#paint4_linear)"/>
<path d="M80.7586 0C36.2312 0 0 36.19 0 80.6668C0 125.144 36.2312 161.334 80.7586 161.334C90.1561 161.334 99.3698 159.735 108.136 156.589C110.045 155.9 111.036 153.795 110.346 151.888C109.655 149.989 107.563 149.021 105.639 149.681C97.6811 152.548 89.3116 154 80.7586 154C40.2766 154 7.34191 121.103 7.34191 80.6668C7.34191 40.2308 40.2766 7.33322 80.7586 7.33322C121.241 7.33322 154.175 40.2308 154.175 80.6668C154.175 81.576 154.161 82.478 154.124 83.3728C154.051 85.404 155.629 87.1056 157.655 87.1788C159.652 87.3256 161.385 85.6756 161.466 83.6588C161.502 82.6616 161.517 81.6716 161.517 80.6668C161.517 36.19 125.286 0 80.7586 0Z" fill="url(#paint5_linear)"/>
<path d="M80.7586 73.3333C76.706 73.3333 73.4171 76.626 73.4171 80.6665C73.4171 84.7073 76.706 87.9997 80.7586 87.9997C84.8112 87.9997 88.1002 84.7073 88.1002 80.6668C88.1002 76.626 84.8112 73.3333 80.7586 73.3333Z" fill="url(#paint6_linear)"/>
<path d="M80.7586 58.6667C68.6156 58.6667 58.7336 68.5375 58.7336 80.6667C58.7336 92.796 68.6156 102.667 80.7586 102.667C92.9017 102.667 102.784 92.796 102.784 80.6667C102.784 68.5375 92.9017 58.6667 80.7586 58.6667ZM80.7586 95.3332C72.6606 95.3332 66.0751 88.7552 66.0751 80.6664C66.0751 72.578 72.6606 66 80.7586 66C88.8566 66 95.4421 72.578 95.4421 80.6667C95.4418 88.7552 88.8563 95.3332 80.7586 95.3332Z" fill="url(#paint7_linear)"/>
<path d="M80.7586 29.3333C52.4272 29.3333 29.3669 52.36 29.3669 80.6665C29.3669 82.6905 31.0116 84.3333 33.0379 84.3333C35.0642 84.3333 36.7089 82.6905 36.7089 80.6665C36.7089 56.4005 56.4653 36.6665 80.759 36.6665C82.7853 36.6665 84.4299 35.0237 84.4299 32.9997C84.4299 30.9757 82.7849 29.3333 80.7586 29.3333Z" fill="url(#paint8_linear)"/>
<path d="M80.7586 14.6667C44.322 14.6667 14.6835 44.2787 14.6835 80.6667C14.6835 82.6908 16.3281 84.3335 18.3544 84.3335C20.3807 84.3335 22.025 82.6908 22.025 80.6667C22.025 48.3192 48.3742 22 80.7586 22C82.7849 22 84.4296 20.3572 84.4296 18.3332C84.4296 16.3092 82.7849 14.6667 80.7586 14.6667Z" fill="url(#paint9_linear)"/>
<path d="M104.252 122.32C103.393 120.487 101.22 119.687 99.3695 120.553C93.518 123.288 87.2629 124.667 80.7583 124.667C78.732 124.667 77.0873 126.31 77.0873 128.334C77.0873 130.358 78.732 132 80.7583 132C88.3421 132 95.6472 130.387 102.482 127.197C104.318 126.339 105.111 124.161 104.252 122.32Z" fill="url(#paint10_linear)"/>
<path d="M107.137 137.28C106.388 135.395 104.259 134.464 102.372 135.227C95.5006 137.955 88.2252 139.334 80.7587 139.334C78.7324 139.334 77.0877 140.976 77.0877 143C77.0877 145.024 78.7324 146.667 80.7587 146.667C89.1574 146.667 97.3363 145.112 105.082 142.04C106.961 141.299 107.886 139.165 107.137 137.28Z" fill="url(#paint11_linear)"/>
<path d="M198.478 125.748L203.56 139.235L208.629 125.748H212.585V143.344H209.536V137.543L209.839 129.784L204.636 143.344H202.447L197.256 129.797L197.559 137.543V143.344H194.51V125.748H198.478Z" fill="#FD275F"/>
<path d="M229.1 125.748V137.507C229.1 139.376 228.499 140.858 227.297 141.954C226.104 143.042 224.511 143.585 222.518 143.585C220.502 143.585 218.901 143.05 217.715 141.978C216.53 140.899 215.937 139.404 215.937 137.495V125.748H218.986V137.519C218.986 138.695 219.284 139.593 219.881 140.214C220.478 140.834 221.357 141.144 222.518 141.144C224.874 141.144 226.051 139.904 226.051 137.422V125.748H229.1Z" fill="#FD275F"/>
<path d="M241.586 138.812C241.586 138.038 241.312 137.442 240.763 137.023C240.223 136.604 239.243 136.181 237.823 135.754C236.404 135.327 235.274 134.852 234.436 134.328C232.831 133.321 232.028 132.008 232.028 130.389C232.028 128.971 232.605 127.802 233.758 126.884C234.92 125.966 236.424 125.506 238.271 125.506C239.497 125.506 240.59 125.732 241.55 126.183C242.509 126.634 243.264 127.279 243.812 128.117C244.361 128.947 244.635 129.869 244.635 130.884H241.586C241.586 129.966 241.296 129.249 240.715 128.733C240.142 128.209 239.319 127.948 238.247 127.948C237.247 127.948 236.468 128.161 235.912 128.588C235.363 129.015 235.089 129.611 235.089 130.377C235.089 131.021 235.387 131.561 235.984 131.996C236.581 132.423 237.565 132.842 238.936 133.253C240.308 133.656 241.409 134.119 242.239 134.643C243.07 135.158 243.679 135.754 244.066 136.431C244.453 137.1 244.647 137.885 244.647 138.788C244.647 140.254 244.082 141.422 242.953 142.292C241.832 143.154 240.308 143.585 238.38 143.585C237.105 143.585 235.932 143.352 234.859 142.885C233.794 142.409 232.964 141.757 232.367 140.927C231.778 140.097 231.484 139.13 231.484 138.026H234.544C234.544 139.025 234.875 139.799 235.537 140.347C236.198 140.895 237.146 141.168 238.38 141.168C239.444 141.168 240.243 140.955 240.775 140.528C241.316 140.093 241.586 139.521 241.586 138.812Z" fill="#FD275F"/>
<path d="M250.563 143.344H247.514V125.748H250.563V143.344Z" fill="#FD275F"/>
<path d="M267.768 137.615C267.59 139.493 266.896 140.959 265.687 142.014C264.477 143.062 262.868 143.585 260.859 143.585C259.456 143.585 258.218 143.255 257.145 142.594C256.08 141.926 255.258 140.979 254.677 139.755C254.096 138.53 253.794 137.108 253.769 135.489V133.845C253.769 132.185 254.064 130.723 254.653 129.458C255.241 128.193 256.084 127.218 257.181 126.534C258.286 125.849 259.561 125.506 261.004 125.506C262.948 125.506 264.513 126.034 265.699 127.089C266.884 128.145 267.574 129.635 267.768 131.561H264.719C264.574 130.296 264.202 129.386 263.606 128.83C263.017 128.266 262.15 127.984 261.004 127.984C259.674 127.984 258.649 128.471 257.931 129.446C257.222 130.413 256.859 131.835 256.842 133.712V135.271C256.842 137.172 257.181 138.623 257.859 139.622C258.544 140.621 259.544 141.12 260.859 141.12C262.061 141.12 262.964 140.85 263.569 140.31C264.174 139.771 264.557 138.872 264.719 137.615H267.768Z" fill="#FD275F"/>
<path d="M286.835 135.887H279.745V143.344H276.684V125.748H287.876V128.213H279.745V133.446H286.835V135.887Z" fill="#FD275F"/>
<path d="M300.604 135.489H293.368V140.903H301.825V143.344H290.308V125.748H301.741V128.213H293.368V133.072H300.604V135.489Z" fill="#FD275F"/>
<path d="M313.525 138.812C313.525 138.038 313.251 137.442 312.702 137.023C312.162 136.604 311.182 136.181 309.762 135.754C308.343 135.327 307.213 134.852 306.375 134.328C304.77 133.321 303.967 132.008 303.967 130.389C303.967 128.971 304.544 127.802 305.697 126.884C306.859 125.966 308.363 125.506 310.21 125.506C311.436 125.506 312.529 125.732 313.489 126.183C314.448 126.634 315.203 127.279 315.751 128.117C316.3 128.947 316.574 129.869 316.574 130.884H313.525C313.525 129.966 313.235 129.249 312.654 128.733C312.081 128.209 311.258 127.948 310.186 127.948C309.186 127.948 308.407 128.161 307.851 128.588C307.302 129.015 307.028 129.611 307.028 130.377C307.028 131.021 307.326 131.561 307.923 131.996C308.52 132.423 309.504 132.842 310.875 133.253C312.247 133.656 313.348 134.119 314.178 134.643C315.009 135.158 315.618 135.754 316.005 136.431C316.392 137.1 316.586 137.885 316.586 138.788C316.586 140.254 316.021 141.422 314.892 142.292C313.771 143.154 312.247 143.585 310.319 143.585C309.044 143.585 307.871 143.352 306.798 142.885C305.733 142.409 304.903 141.757 304.306 140.927C303.717 140.097 303.423 139.13 303.423 138.026H306.483C306.483 139.025 306.814 139.799 307.476 140.347C308.137 140.895 309.085 141.168 310.319 141.168C311.383 141.168 312.182 140.955 312.714 140.528C313.255 140.093 313.525 139.521 313.525 138.812Z" fill="#FD275F"/>
<path d="M332 128.213H326.507V143.344H323.47V128.213H318.026V125.748H332V128.213Z" fill="#FD275F"/>
<path d="M337.553 143.344H334.504V125.748H337.553V143.344Z" fill="#FD275F"/>
<path d="M347.522 139.513L351.999 125.748H355.362L349.023 143.344H346.058L339.743 125.748H343.094L347.522 139.513Z" fill="#FD275F"/>
<path d="M366.3 139.247H359.476L358.048 143.344H354.866L361.521 125.748H364.267L370.933 143.344H367.739L366.3 139.247ZM360.335 136.782H365.441L362.888 129.482L360.335 136.782Z" fill="#FD275F"/>
<path d="M376.003 140.903H384V143.344H372.942V125.748H376.003V140.903Z" fill="#FD275F"/>
<path d="M219.21 97.6626L222.974 78.7295L235.342 26.697L238.837 13.9407H250.263L253.691 26.697L266.059 78.8638L269.957 97.7297L274.058 78.7295L291.197 13.9407H302.221L275.872 110.688H264.244L248.314 44.4216L244.55 26.2271L240.853 44.4216L224.856 110.688H213.295L187.014 13.9407H198.104L215.043 78.5952L219.21 97.6626Z" fill="#F2F2F2"/>
<path d="M317.68 13.9407H342.55C351.557 13.9407 358.726 14.5225 364.059 15.6863C368.898 16.7605 372.707 18.5732 375.485 21.1245C377.815 23.3177 379.675 25.8914 381.064 28.8455C382.812 32.7843 383.685 37.4168 383.685 42.7432C383.685 48.159 382.789 52.7692 380.997 56.5737C379.608 59.5726 377.726 62.0791 375.351 64.0933C372.931 66.2417 369.727 67.8978 365.739 69.0615C360.944 70.4938 354.716 71.21 347.053 71.21H329.376V110.688H317.68V13.9407ZM329.376 23.6086V61.8105H341.676C348.756 61.8105 354.312 61.4525 358.345 60.7363C360.138 60.423 361.639 60.0202 362.849 59.5278C364.103 59.0355 365.201 58.4089 366.142 57.6479C367.755 56.3947 368.965 54.8505 369.772 53.0154C370.847 50.7327 371.385 47.3757 371.385 42.9446C371.385 38.4239 370.803 34.8656 369.637 32.2695C368.741 30.2106 367.397 28.5321 365.605 27.2341C364.753 26.6523 363.924 26.1599 363.118 25.7571C362.311 25.3542 361.303 24.9962 360.093 24.6829C357.225 23.9667 353.17 23.6086 347.927 23.6086H329.376Z" fill="#F2F2F2"/>
<defs>
<linearGradient id="paint0_linear" x1="135.887" y1="88" x2="135.887" y2="176" gradientUnits="userSpaceOnUse">
<stop offset="0.624309" stop-color="#FF225C"/>
<stop offset="1" stop-color="#0372F4"/>
</linearGradient>
<linearGradient id="paint1_linear" x1="135.822" y1="66" x2="135.822" y2="124.667" gradientUnits="userSpaceOnUse">
<stop offset="0.624309" stop-color="#FF225C"/>
<stop offset="1" stop-color="#0372F4"/>
</linearGradient>
<linearGradient id="paint2_linear" x1="121.138" y1="73.3333" x2="121.138" y2="124.667" gradientUnits="userSpaceOnUse">
<stop offset="0.624309" stop-color="#FF225C"/>
<stop offset="1" stop-color="#0372F4"/>
</linearGradient>
<linearGradient id="paint3_linear" x1="150.505" y1="73.3333" x2="150.505" y2="124.667" gradientUnits="userSpaceOnUse">
<stop offset="0.624309" stop-color="#FF225C"/>
<stop offset="1" stop-color="#0372F4"/>
</linearGradient>
<linearGradient id="paint4_linear" x1="106.454" y1="102.667" x2="106.454" y2="118.419" gradientUnits="userSpaceOnUse">
<stop offset="0.624309" stop-color="#FF225C"/>
<stop offset="1" stop-color="#0372F4"/>
</linearGradient>
<linearGradient id="paint5_linear" x1="80.7585" y1="0" x2="80.7585" y2="161.334" gradientUnits="userSpaceOnUse">
<stop offset="0.624309" stop-color="#FF225C"/>
<stop offset="1" stop-color="#0372F4"/>
</linearGradient>
<linearGradient id="paint6_linear" x1="80.7586" y1="73.3333" x2="80.7586" y2="87.9997" gradientUnits="userSpaceOnUse">
<stop offset="0.624309" stop-color="#FF225C"/>
<stop offset="1" stop-color="#0372F4"/>
</linearGradient>
<linearGradient id="paint7_linear" x1="80.7586" y1="58.6667" x2="80.7586" y2="102.667" gradientUnits="userSpaceOnUse">
<stop offset="0.624309" stop-color="#FF225C"/>
<stop offset="1" stop-color="#0372F4"/>
</linearGradient>
<linearGradient id="paint8_linear" x1="56.8984" y1="29.3333" x2="56.8984" y2="84.3333" gradientUnits="userSpaceOnUse">
<stop offset="0.624309" stop-color="#FF225C"/>
<stop offset="1" stop-color="#0372F4"/>
</linearGradient>
<linearGradient id="paint9_linear" x1="49.5565" y1="14.6667" x2="49.5565" y2="84.3335" gradientUnits="userSpaceOnUse">
<stop offset="0.624309" stop-color="#FF225C"/>
<stop offset="1" stop-color="#0372F4"/>
</linearGradient>
<linearGradient id="paint10_linear" x1="90.8429" y1="120.203" x2="90.8429" y2="132" gradientUnits="userSpaceOnUse">
<stop offset="0.624309" stop-color="#FF225C"/>
<stop offset="1" stop-color="#0372F4"/>
</linearGradient>
<linearGradient id="paint11_linear" x1="92.2424" y1="134.96" x2="92.2424" y2="146.667" gradientUnits="userSpaceOnUse">
<stop offset="0.624309" stop-color="#FF225C"/>
<stop offset="1" stop-color="#0372F4"/>
</linearGradient>
</defs>
</svg>
