<svg viewBox="1 1 511.99999 511.99999" xmlns="http://www.w3.org/2000/svg"><path d="m503.71875 305.269531c-5.523438-5.933593-12.90625-9.203125-20.785156-9.203125-3.441406 0-6.742188.632813-9.804688 1.792969-2.175781-9.910156-8.960937-17.984375-17.859375-21.59375 3.121094-15.214844 4.730469-30.730469 4.730469-46.265625 0-61.4375-23.925781-119.195312-67.367188-162.636719-43.441406-43.4375-101.199218-67.363281-162.632812-67.363281-34.871094 0-69.859375 8.109375-101.179688 23.449219-4.957031 2.429687-7.011718 8.417969-4.582031 13.378906 2.429688 4.960937 8.417969 7.011719 13.378907 4.582031 28.597656-14.007812 60.542968-21.410156 92.382812-21.410156 115.792969 0 210 94.207031 210 210 0 14.078125-1.445312 28.136719-4.253906 41.929688v-63.015626c0-16.804687-13.039063-30.472656-29.066406-30.472656-16.023438 0-29.0625 13.667969-29.0625 30.472656v.65625c-2.855469-.984374-5.898438-1.523437-9.0625-1.523437-16.027344 0-29.0625 13.667969-29.0625 30.472656v83.503907c-11.902344 4.148437-20.472657 15.476562-20.472657 28.777343v18.113281c-8.558593 5.484376-17.636719 10.191407-27.054687 14.007813-5.121094 2.074219-7.585938 7.90625-5.511719 13.023437 1.574219 3.890626 5.316406 6.25 9.269531 6.25 1.25 0 2.523438-.238281 3.753906-.738281 6.683594-2.707031 13.210938-5.828125 19.542969-9.300781v7.792969c0 6.558593.667969 13.015625 1.957031 19.300781-28.292968 13.582031-59.578124 20.75-90.976562 20.75-115.792969 0-210-94.207031-210-210 0-56.09375 21.84375-108.828125 61.507812-148.492188 3.90625-3.90625 3.90625-10.238281 0-14.144531-3.902343-3.902343-10.234374-3.902343-14.140624 0-21.46875 21.46875-38.242188 46.574219-49.859376 74.617188-11.617187 28.046875-17.507812 57.660156-17.507812 88.019531 0 61.433594 23.925781 119.191406 67.363281 162.632812 43.441407 43.441407 101.199219 67.367188 162.636719 67.367188 33.449219 0 66.769531-7.433594 97.078125-21.527344 7.632813 17.457032 20.375 32.523438 36.925781 42.988282v20.539062c0 5.523438 4.476563 10 10 10h97.625c5.523438 0 10-4.476562 10-10v-31.929688c19.355469-18.257812 30.367188-43.550781 30.367188-70.121093l.003906-73.410157c.003906-7.976562-2.9375-15.535156-8.28125-21.269531zm-11.71875 94.679688c0 22.285156-9.796875 43.453125-26.875 58.082031-.101562.085938-.1875.183594-.285156.269531-.117188.113281-.238282.21875-.351563.335938-.128906.132812-.25.269531-.367187.40625-.09375.105469-.1875.210937-.277344.320312-.121094.148438-.234375.304688-.34375.457031-.078125.109376-.15625.21875-.230469.328126-.101562.15625-.199219.320312-.289062.480468-.074219.121094-.140625.242188-.207031.367188-.082032.15625-.15625.3125-.226563.472656-.066406.140625-.128906.28125-.1875.425781-.0625.148438-.113281.296875-.167969.449219-.054687.160156-.105468.316406-.15625.480469-.042968.148437-.078125.296875-.113281.445312-.039063.167969-.082031.332031-.113281.5-.03125.160157-.050782.320313-.074219.484375-.019531.160156-.042969.316406-.058594.480469-.015625.183594-.023437.371094-.027343.558594-.003907.109375-.015626.222656-.015626.335937v26.371094h-77.628906v-16.148438c0-.027343 0-.054687 0-.082031v-.007812c0-.019531 0-.042969 0-.0625-.003906-.304688-.015625-.609375-.046875-.90625-.015625-.15625-.042969-.304688-.066406-.457031-.023437-.164063-.042969-.332032-.074219-.496094-.039062-.195313-.089844-.390625-.140625-.585938-.03125-.113281-.054687-.230468-.089843-.34375-.058594-.203125-.132813-.398437-.207032-.597656-.039062-.105469-.074218-.214844-.113281-.316406-.074219-.183594-.160156-.363282-.246094-.539063-.054687-.117187-.109375-.234375-.167969-.351562-.082031-.152344-.171874-.296875-.257812-.445313-.082031-.136718-.160156-.273437-.246094-.402344-.082031-.121093-.167968-.238281-.253906-.355468-.105469-.148438-.210938-.296875-.324219-.4375-.082031-.101563-.171875-.195313-.257812-.292969-.125-.144531-.253907-.289063-.390625-.429687-.097656-.097657-.203125-.191407-.304688-.285157-.132812-.125-.261718-.246093-.398437-.363281-.152344-.128906-.3125-.242188-.472657-.363281-.097656-.070313-.191406-.148438-.292968-.21875-.292969-.199219-.59375-.386719-.90625-.554688-24.507813-13.480469-39.726563-39.148437-39.726563-67.007812v-49.148438c0-5.773437 4.695313-10.46875 10.46875-10.46875 5.523438 0 10-4.480469 10-10v-91.8125c0-5.675781 4.152344-10.472656 9.066407-10.472656 4.910156 0 9.0625 4.796875 9.0625 10.472656v91.8125c0 5.519531 4.476562 10 10 10 5.523437 0 10-4.480469 10-10v-121.417969c0-5.675781 4.148437-10.472656 9.0625-10.472656 4.914062 0 9.066406 4.796875 9.066406 10.472656v121.417969c0 5.519531 4.476562 10 10 10 5.519531 0 10-4.480469 10-10v-25.648437c0-5.675782 4.148437-10.472656 9.0625-10.472656 4.914062 0 9.0625 4.796874 9.0625 10.472656v29.710937c0 5.523438 4.472656 10 9.996094 10.003907h.003906c5.519531 0 10-4.476563 10-10v-7.859376c.003906-5.675781 4.152344-10.472656 9.066406-10.472656 2.261719 0 4.445312 1.003906 6.144531 2.832032 1.882813 2.019531 2.917969 4.730468 2.917969 7.632812zm0 0"/><path d="m360.8125 113.328125c3.90625-3.90625 3.90625-10.238281 0-14.144531-17.265625-17.265625-37.457031-30.757813-60.019531-40.101563-22.554688-9.34375-46.375-14.082031-70.792969-14.082031-102.011719 0-185 82.988281-185 185 0 5.519531 4.476562 10 10 10s10-4.480469 10-10c0-90.980469 74.019531-165 165-165 44.070312 0 85.507812 17.164062 116.671875 48.328125 3.90625 3.902344 10.238281 3.902344 14.140625 0zm0 0"/><path d="m114.75 179.84375c3.605469 0 7.085938-1.957031 8.871094-5.375 20.757812-39.765625 61.519531-64.46875 106.378906-64.46875 21.035156 0 41.78125 5.558594 60 16.074219 4.78125 2.761719 10.898438 1.125 13.660156-3.660157 2.761719-4.78125 1.121094-10.898437-3.660156-13.660156-21.253906-12.269531-45.460938-18.753906-70-18.753906-52.335938 0-99.890625 28.820312-124.105469 75.214844-2.558593 4.894531-.660156 10.9375 4.234375 13.492187 1.476563.769531 3.058594 1.136719 4.621094 1.136719zm0 0"/><path d="m230 350c-42.734375 0-82.554688-22.992188-103.921875-60-2.761719-4.785156-8.878906-6.425781-13.660156-3.660156-4.785157 2.761718-6.421875 8.875-3.660157 13.660156 24.925782 43.175781 71.382813 70 121.242188 70 5.523438 0 10-4.476562 10-10s-4.476562-10-10-10zm0 0"/><path d="m230 200c-16.542969 0-30 13.457031-30 30s13.457031 30 30 30 30-13.457031 30-30-13.457031-30-30-30zm0 40c-5.515625 0-10-4.488281-10-10 0-5.515625 4.484375-10 10-10s10 4.484375 10 10c0 5.511719-4.484375 10-10 10zm0 0"/><path d="m320 230c0-49.625-40.375-90-90-90s-90 40.375-90 90 40.375 90 90 90 90-40.375 90-90zm-90 70c-38.597656 0-70-31.402344-70-70s31.402344-70 70-70 70 31.402344 70 70-31.402344 70-70 70zm0 0"/><path d="m96.730469 64.964844c2.117187 0 4.25-.667969 6.0625-2.050782l.171875-.132812c4.410156-3.324219 5.292968-9.59375 1.972656-14.003906-3.324219-4.410156-9.59375-5.296875-14.003906-1.972656l-.277344.210937c-4.386719 3.347656-5.230469 9.625-1.882812 14.015625 1.96875 2.578125 4.945312 3.933594 7.957031 3.933594zm0 0"/><path d="m230 395c-28.921875 0-57.453125-7.644531-82.5-22.105469-4.78125-2.761719-10.898438-1.121093-13.660156 3.660157-2.761719 4.78125-1.121094 10.898437 3.660156 13.660156 28.085938 16.214844 60.070312 24.785156 92.5 24.785156 5.523438 0 10-4.480469 10-10 0-5.523438-4.476562-10-10-10zm0 0"/><path d="m266.75 390.851562-.28125.066407c-5.382812 1.234375-8.746094 6.597656-7.511719 11.980469 1.0625 4.632812 5.179688 7.769531 9.738281 7.769531.738282 0 1.492188-.082031 2.242188-.257813l.28125-.0625c5.382812-1.234375 8.746094-6.597656 7.515625-11.980468-1.234375-5.382813-6.597656-8.75-11.984375-7.515626zm0 0"/></svg>