<svg width="13" height="12" viewBox="0 0 13 12" fill="none" xmlns="http://www.w3.org/2000/svg">
<path d="M9.05297 2.36872L8.3749 1.89927C8.28422 1.83653 8.15984 1.85914 8.09705 1.94979C8.03426 2.04047 8.05691 2.16485 8.14757 2.22764L8.82564 2.69709C8.91544 2.75926 9.04135 2.73627 9.10347 2.6466C9.16623 2.55587 9.14363 2.43149 9.05297 2.36872Z" fill="white"/>
<path d="M10.4092 3.30757L9.73113 2.83814C9.64045 2.77536 9.51609 2.79798 9.45328 2.88864C9.39047 2.97932 9.41307 3.1037 9.50375 3.16649C9.50375 3.16649 10.1805 3.63498 10.1818 3.63591C10.2682 3.69571 10.3966 3.67655 10.4597 3.58542C10.5225 3.49476 10.4999 3.37036 10.4092 3.30757Z" fill="white"/>
<path d="M3.99478 3.0931L3.19189 2.90468C3.08456 2.87952 2.97709 2.94609 2.95186 3.05346C2.92667 3.16084 2.99328 3.26829 3.10064 3.2935L3.90352 3.48191C3.91888 3.4855 3.93419 3.48725 3.94935 3.48725C4.03994 3.48725 4.12196 3.42513 4.14358 3.33313C4.16874 3.22573 4.10213 3.11826 3.99478 3.0931Z" fill="white"/>
<path d="M5.60049 3.46993L4.7976 3.28152C4.69025 3.25635 4.5828 3.32292 4.55757 3.4303C4.53238 3.53767 4.599 3.64512 4.70635 3.67031L5.50924 3.85872C5.52459 3.86231 5.5399 3.86406 5.55507 3.86406C5.64565 3.86406 5.72767 3.80196 5.74929 3.70996C5.77446 3.60257 5.70784 3.49512 5.60049 3.46993Z" fill="white"/>
<path d="M5.91369 4.41601L4.09448 3.98911C3.98715 3.96395 3.87968 4.03052 3.85444 4.13789C3.82926 4.24527 3.89587 4.35272 4.00322 4.3779L5.62804 4.75918L4.31715 10.3457L1.28277 9.63365L2.59364 4.04714L3.21134 4.19207C3.31871 4.21726 3.42614 4.15064 3.45135 4.04329C3.47656 3.93594 3.40992 3.82847 3.30255 3.80328L2.49047 3.61274C2.38336 3.58757 2.2757 3.65414 2.25046 3.76152L0.84834 9.73682C0.823153 9.84419 0.889769 9.95164 0.997121 9.97683L4.42026 10.7801C4.43533 10.7836 4.45067 10.7854 4.4659 10.7854C4.50279 10.7854 4.53924 10.7751 4.5711 10.7554C4.61612 10.7275 4.64819 10.6829 4.66032 10.6313L6.06247 4.65602C6.08763 4.54864 6.02101 4.4412 5.91369 4.41601Z" fill="white"/>
<path d="M4.88931 6.66881C4.8558 6.58904 4.77483 6.53998 4.68852 6.54721L3.94144 6.60985L3.65101 5.91872C3.61752 5.83894 3.53634 5.78986 3.45023 5.79711C3.36405 5.80433 3.29226 5.86626 3.2725 5.95048L3.10124 6.68034L2.35416 6.74301C2.26797 6.75023 2.19619 6.81216 2.17643 6.89636C2.15668 6.98058 2.19339 7.06796 2.26738 7.11276L2.90859 7.50117L2.73733 8.23105C2.71757 8.31527 2.75429 8.40265 2.82827 8.44745C2.86025 8.46683 2.89606 8.47635 2.93167 8.47635C2.97851 8.47635 3.02501 8.45992 3.06218 8.42784L3.62972 7.93804L4.27096 8.32647C4.3449 8.37127 4.43935 8.36338 4.50487 8.30685C4.57036 8.25033 4.59199 8.15807 4.5585 8.07835L4.26807 7.38719L4.83563 6.89739C4.90122 6.84082 4.92282 6.74856 4.88931 6.66881ZM3.84375 7.40812L3.95233 7.66648C3.95233 7.66648 3.71265 7.52131 3.7126 7.52126C3.54677 7.4208 3.38022 7.62586 3.26657 7.72396L3.33058 7.45118C3.35034 7.36696 3.31362 7.27958 3.23964 7.23478L2.99996 7.08956C2.99996 7.08956 3.27882 7.06619 3.2792 7.06617C3.47307 7.0499 3.48673 6.78566 3.52091 6.63999C3.52091 6.63999 3.62922 6.89772 3.62946 6.8983C3.70502 7.07808 3.95993 7.00905 4.10948 6.99651C3.9943 7.09597 3.76628 7.22375 3.84375 7.40812Z" fill="white"/>
<path d="M12.1609 2.92785C11.9907 2.81004 11.9331 2.58237 12.0268 2.39826C12.0722 2.30924 12.0447 2.20038 11.9625 2.1435L10.9412 1.43645C10.8591 1.3796 10.7476 1.39218 10.6801 1.46595C10.6019 1.55165 10.4899 1.60081 10.3731 1.60081C10.2886 1.60081 10.2071 1.57528 10.1373 1.5269C9.9671 1.40909 9.9095 1.18142 10.0032 0.997314C10.0486 0.908285 10.0211 0.799426 9.93897 0.742545L8.91774 0.0355043C8.83555 -0.0213528 8.72402 -0.00877103 8.65663 0.0649972C8.57837 0.150701 8.4664 0.199808 8.34958 0.199856C8.26512 0.199856 8.1836 0.174334 8.11375 0.125944C8.02315 0.0632032 7.89871 0.0857834 7.83593 0.176439L6.68144 1.84397C6.66283 1.83204 6.64205 1.82292 6.61947 1.81761L5.41016 1.53388C5.3129 1.51104 5.21371 1.56366 5.17802 1.65699C5.10504 1.8479 4.89374 1.95915 4.69523 1.91255C4.49378 1.86526 4.35674 1.67455 4.37652 1.46889C4.38609 1.36943 4.32064 1.2782 4.22336 1.25536L3.01408 0.9716C2.91685 0.948757 2.81765 1.00138 2.78194 1.09471C2.70899 1.2854 2.49749 1.39684 2.29915 1.3503C2.19191 1.32511 2.08437 1.39173 2.05914 1.49908C2.05914 1.49908 1.76014 2.77323 1.75988 2.77438L0.00532286 10.2516C-0.0198645 10.359 0.0467517 10.4665 0.154103 10.4916C0.355602 10.5389 0.492614 10.7297 0.472833 10.9353C0.463265 11.0348 0.528709 11.126 0.625966 11.1488L1.83522 11.4326C1.93267 11.4554 2.03168 11.4028 2.06736 11.3095C2.2355 10.8697 2.91381 11.0306 2.86891 11.4976C2.85934 11.597 2.92479 11.6883 3.02207 11.7111L4.23133 11.9949C4.32741 12.0173 4.42819 11.964 4.46347 11.8717C4.52444 11.7122 4.68011 11.6051 4.85085 11.6051C4.93892 11.6051 5.01458 11.6427 5.0971 11.5915C5.14209 11.5636 5.17419 11.519 5.18632 11.4674L5.44891 10.3484C5.44891 10.3484 6.01196 10.7382 6.01215 10.7384C6.09154 10.7933 6.20606 10.7824 6.27328 10.7089C6.35152 10.6232 6.46346 10.5741 6.58029 10.5741C6.66475 10.5741 6.74629 10.5996 6.81613 10.648C6.90681 10.7107 7.03117 10.6881 7.09396 10.5974L12.2113 3.2057C12.2741 3.11504 12.2515 2.99061 12.1609 2.92785ZM5.42791 8.68925C5.42791 8.68925 5.12698 9.97171 5.12695 9.9718L4.83738 11.2058C4.56766 11.2104 4.31852 11.3509 4.1721 11.5708L3.26378 11.3577C3.22206 11.0266 2.97741 10.744 2.64136 10.6652C2.31312 10.5882 1.96279 10.7281 1.77602 11.0086L0.867722 10.7954C0.834283 10.5302 0.6706 10.296 0.433987 10.1729L2.1032 3.0595L2.29762 3.10511C2.31295 3.1087 2.32826 3.11045 2.3434 3.11045C2.43398 3.11045 2.516 3.04833 2.53763 2.95633C2.56281 2.84896 2.4962 2.74151 2.38882 2.71632L2.19445 2.67071L2.40798 1.76073C2.6777 1.75621 2.92682 1.61571 3.07326 1.39577L3.98158 1.60892C4.0233 1.93999 4.26793 2.22255 4.60397 2.30144C4.93217 2.37843 5.28262 2.23853 5.46931 1.95807L6.37764 2.17119C6.38022 2.17184 6.38599 2.22358 6.38714 2.2293C6.399 2.28811 6.41809 2.34736 6.44311 2.40271C6.51819 2.56903 6.64915 2.70965 6.81135 2.79382L6.59777 3.70401L6.40335 3.6584C6.29622 3.63324 6.18858 3.6998 6.16334 3.80718C6.13816 3.91456 6.20477 4.022 6.31215 4.04719L6.50652 4.0928L6.18896 5.44613C6.18896 5.44613 6.15428 5.59395 6.15425 5.59405L5.92108 6.58767C5.92106 6.5876 5.42791 8.68918 5.42791 8.68925ZM11.2514 3.89076L11.0872 3.77707C10.9965 3.71428 10.8721 3.73693 10.8094 3.82756C10.7466 3.91824 10.7692 4.04262 10.8599 4.10541L11.024 4.21908L6.86515 10.2261C6.77463 10.1922 6.67843 10.1746 6.58019 10.1746C6.41163 10.1746 6.24814 10.227 6.11227 10.322L5.54689 9.93054L5.7498 9.06585L6.63291 9.67723C6.72261 9.73928 6.84864 9.71641 6.91074 9.62671L9.47858 5.91771C9.54137 5.82703 9.51877 5.70265 9.42811 5.63986C9.33743 5.57707 9.21305 5.5997 9.15026 5.69035L6.69603 9.23522L5.84782 8.64797L6.23716 6.98878L6.93851 6.7431L7.39286 7.33942C7.4314 7.38999 7.49062 7.41809 7.55174 7.41809C7.57379 7.41809 7.59608 7.41446 7.61773 7.40685C7.69937 7.37827 7.75333 7.30036 7.75135 7.21384L7.73424 6.46437L8.44179 6.21654C8.52343 6.18795 8.57739 6.11004 8.5754 6.02355C8.57344 5.93708 8.51601 5.86169 8.43313 5.83683L7.71504 5.62144L7.69793 4.87192C7.69597 4.78542 7.63854 4.71005 7.55566 4.6852C7.47278 4.66035 7.38337 4.6917 7.33412 4.76282L6.90744 5.37918L6.63403 5.29718L7.14809 3.10655L7.3997 2.74311L9.96229 4.51726L9.61483 5.01919C9.55204 5.10987 9.57465 5.23425 9.6653 5.29704C9.75598 5.35983 9.88034 5.33718 9.94315 5.24655C9.94315 5.24655 10.4027 4.58273 10.4043 4.5805C10.466 4.49128 10.4426 4.36417 10.3538 4.30265C10.3538 4.30265 7.46804 2.30479 7.46285 2.30117C7.3731 2.23903 7.24702 2.26207 7.185 2.35167L7.09834 2.47686C7.09595 2.47622 7.09365 2.47538 7.09124 2.47481C6.99278 2.45163 6.90538 2.39233 6.84716 2.30971C6.84673 2.30912 6.84637 2.30847 6.84594 2.30785L7.30522 1.64446C7.30522 1.64446 7.46936 1.75808 7.46936 1.75813C7.55657 1.8185 7.68439 1.79831 7.74721 1.70761C7.81 1.61695 7.78739 1.49255 7.69674 1.42976L7.53258 1.31609L8.06457 0.547672C8.15509 0.581638 8.25131 0.599195 8.34955 0.599195C8.51811 0.599195 8.68158 0.546763 8.81744 0.451826L9.58443 0.982842C9.502 1.30619 9.62607 1.65872 9.9099 1.85522C10.1874 2.04736 10.5644 2.04595 10.841 1.85278L11.608 2.38379C11.542 2.64284 11.6085 2.92069 11.7835 3.12195L11.2514 3.89076ZM7.33813 6.60863C7.33813 6.60863 7.16835 6.38584 7.16828 6.3857C7.11652 6.31779 7.02395 6.29002 6.94344 6.31827L6.67898 6.41088C6.76602 6.28514 6.95475 6.10548 6.83314 5.94581L6.66331 5.72288C6.66331 5.72288 6.93148 5.80332 6.93176 5.8034C7.11891 5.85951 7.22684 5.61952 7.31278 5.49541C7.31278 5.49541 7.31917 5.77529 7.31917 5.77555C7.32361 5.97035 7.58618 5.99968 7.72984 6.04278L7.46536 6.1354C7.38372 6.16398 7.32976 6.24191 7.33175 6.32843L7.33813 6.60863Z" fill="white"/>
</svg>
