<svg viewBox="-91 0 512 512.00101" xmlns="http://www.w3.org/2000/svg"><path d="m198.167969 292.882812-33.074219-67.015624-33.074219 67.015624-73.957031 10.746094 53.515625 52.164063-12.632813 73.65625 66.148438-34.773438 66.148438 34.773438-12.632813-73.65625 53.515625-52.164063zm-6.792969 81.695313-26.28125-13.816406-26.28125 13.816406 5.019531-29.265625-21.261719-20.726562 29.382813-4.269532 13.140625-26.625 13.144531 26.625 29.382813 4.269532-21.261719 20.726562zm0 0"/><path d="m219.398438 51.738281 19.15625-38.316406-26.847657-13.421875-25.871093 51.738281h-41.480469l-25.871094-51.738281-26.847656 13.425781 19.15625 38.3125h-110.792969v460.261719h330.1875v-460.261719zm-189.378907 430.246094v-280.160156h30.015625v-30.019531h-30.015625v-90.050782h95.78125l15.007813 30.019532h-20.738282v30.015624h90.050782v-30.015624h-35.75l-15.007813-30.019532h140.808594v90.050782h-30.015625v30.019531h30.015625v280.160156zm0 0"/><path d="m180.101562 171.804688h60.035157v30.019531h-60.035157zm0 0"/><path d="m90.050781 171.804688h60.035157v30.019531h-60.035157zm0 0"/></svg>